<svg width="319" height="319" viewBox="0 0 319 319" fill="none" xmlns="http://www.w3.org/2000/svg">
<g filter="url(#filter0_d_2338_967)">
<rect x="5.80005" y="11.7998" width="299" height="299" rx="70" fill="#FCFFFF"/>
<path d="M190.476 46.2622C190.837 46.3629 191.199 46.4636 191.571 46.5674C196.185 47.8623 200.675 49.3773 205.114 51.1666C205.317 51.2479 205.519 51.3291 205.727 51.4128C208.716 52.6206 211.606 53.9841 214.483 55.4267C214.852 55.6087 214.852 55.6087 215.228 55.7943C218.627 57.4737 221.843 59.3942 225.023 61.4409C225.418 61.6948 225.418 61.6948 225.821 61.9539C229.423 64.2823 232.86 66.7225 236.148 69.4598C236.506 69.7548 236.865 70.0498 237.223 70.3447C239.454 72.19 241.635 74.0848 243.76 76.0467C243.988 76.255 243.988 76.255 244.22 76.4674C246.265 78.3473 247.981 80.1919 249.322 82.6337C249.449 82.839 249.575 83.0442 249.706 83.2557C251.113 85.9432 250.896 89.67 250.266 92.5544C248.95 96.0549 246.39 98.1234 243.089 99.7105C240.251 100.991 236.92 101.119 233.957 100.137C231.991 99.2831 230.153 98.0496 228.536 96.6668C228.536 96.4778 228.536 96.2888 228.536 96.094C228.374 96.0301 228.213 95.9663 228.046 95.9005C227.151 95.4022 226.543 94.7601 225.828 94.0356C224.719 92.927 223.593 91.8639 222.385 90.8585C221.977 90.5141 221.577 90.1613 221.182 89.8024C216.352 85.411 210.841 81.7913 205.114 78.6242C204.834 78.4672 204.834 78.4672 204.548 78.307C198.509 74.9429 191.872 72.2218 185.206 70.3189C184.951 70.245 184.697 70.171 184.434 70.0948C179.599 68.712 174.674 67.8534 169.689 67.1687C169.309 67.1143 168.928 67.0599 168.536 67.0039C164.801 66.5104 161.07 66.5085 157.307 66.5212C156.224 66.5243 155.141 66.5212 154.058 66.5176C150.249 66.5152 146.525 66.6243 142.755 67.1687C142.407 67.2178 142.059 67.267 141.701 67.3176C126.953 69.5328 112.483 75.1503 100.596 84.0656C100.278 84.2989 99.9594 84.532 99.6409 84.7648C87.108 93.9914 78.0505 105.247 70.7334 118.719C70.6319 118.902 70.5304 119.086 70.4259 119.275C67.94 123.779 65.9975 128.687 64.5852 133.611C64.3907 134.208 64.1955 134.805 63.9997 135.401C62.9986 138.597 62.2424 141.824 61.8039 145.14C61.597 146.656 61.3424 148.163 61.0874 149.671C60.6561 152.28 60.4393 154.862 60.4167 157.504C60.4138 157.784 60.411 158.063 60.408 158.351C60.2852 173.476 62.3342 187.82 68.684 201.772C68.7911 202.009 68.8983 202.245 69.0086 202.489C70.532 205.824 72.2912 208.972 74.2466 212.082C74.4172 212.36 74.5878 212.638 74.7635 212.924C78.2781 218.523 82.7676 223.685 87.4212 228.406C87.6096 228.598 87.7979 228.79 87.992 228.988C90.5233 231.556 93.0878 233.949 96.0192 236.074C96.487 236.418 96.9445 236.775 97.4017 237.132C110.663 247.471 127.33 253.388 143.926 255.899C144.238 255.95 144.551 256.001 144.873 256.054C148.792 256.622 152.725 256.586 156.679 256.58C157.051 256.579 157.422 256.579 157.804 256.579C166.066 256.563 173.695 255.721 181.693 253.608C181.953 253.542 182.213 253.475 182.48 253.406C193.106 250.644 204.182 246.291 212.928 239.611C213.964 238.961 214.742 238.757 215.942 238.588C216.659 238.396 216.929 238.114 217.411 237.57C217.792 237.198 218.176 236.827 218.563 236.461C219.176 235.878 219.176 235.878 219.606 235.226C220.127 234.61 220.437 234.573 221.217 234.42C221.313 234.231 221.41 234.042 221.509 233.847C221.703 233.847 221.896 233.847 222.095 233.847C221.998 233.564 221.902 233.28 221.802 232.988C231.281 222.434 231.281 222.434 237.195 222.057C241.33 222.028 244.455 223.174 247.489 225.984C249.917 228.564 250.965 231.463 250.87 234.935C250.747 236.288 250.422 237.458 249.908 238.716C249.822 238.941 249.736 239.166 249.647 239.398C248.602 241.771 246.758 243.494 244.931 245.303C244.739 245.495 244.547 245.687 244.349 245.884C242.264 247.964 240.165 249.991 237.904 251.89C237.574 252.172 237.243 252.454 236.913 252.737C236.591 253.01 236.269 253.282 235.947 253.555C235.794 253.685 235.641 253.816 235.483 253.951C232.402 256.551 229.107 258.842 225.718 261.037C225.527 261.161 225.335 261.285 225.138 261.413C222.044 263.421 218.917 265.332 215.654 267.069C215.429 267.19 215.204 267.312 214.973 267.437C209.818 270.216 204.521 272.264 198.966 274.139C198.733 274.218 198.5 274.297 198.26 274.379C193.547 275.974 188.767 277.202 183.907 278.291C183.598 278.362 183.29 278.433 182.972 278.506C179.994 279.177 177.011 279.672 173.971 279.974C173.53 280.019 173.088 280.064 172.647 280.109C172.458 280.128 172.268 280.147 172.073 280.167C171.584 280.226 171.096 280.302 170.61 280.384C166.165 281.083 161.565 280.869 157.077 280.868C156.252 280.868 155.428 280.87 154.603 280.874C150.039 280.895 145.526 280.873 140.998 280.243C140.604 280.191 140.209 280.14 139.815 280.089C138.682 279.936 137.553 279.771 136.423 279.598C136.226 279.568 136.029 279.538 135.826 279.507C131.934 278.91 128.118 278.082 124.31 277.092C124.023 277.019 123.737 276.945 123.442 276.869C123.017 276.759 123.017 276.759 122.584 276.646C122.332 276.58 122.079 276.514 121.818 276.446C120.826 276.156 119.885 275.769 118.929 275.379C118.115 275.07 117.299 274.826 116.46 274.586C103.291 270.666 90.2628 263.488 79.7442 254.842C79.254 254.444 78.7592 254.051 78.256 253.668C75.7301 251.732 73.4941 249.522 71.2343 247.3C70.5518 246.629 69.8662 245.961 69.1803 245.294C66.9301 243.095 64.7692 240.899 62.8286 238.43C62.5429 238.081 62.2567 237.733 61.9697 237.386C59.3301 234.132 56.8754 230.789 54.6311 227.26C54.4001 226.909 54.1687 226.558 53.9369 226.208C52.3459 223.785 50.9582 221.328 49.6823 218.735C49.3367 218.047 48.9765 217.368 48.6133 216.689C46.3902 212.502 44.5895 208.2 42.9203 203.776C42.8207 203.514 42.7211 203.252 42.6185 202.982C36.1798 185.792 34.5089 166.624 36.4794 148.503C36.5258 148.036 36.5719 147.569 36.6178 147.102C36.7453 145.848 36.9003 144.598 37.0649 143.348C37.0892 143.153 37.1135 142.957 37.1386 142.755C38.3268 133.408 41.1778 123.91 44.9697 115.282C45.0663 115.061 45.1629 114.839 45.2625 114.611C48.2192 107.872 51.7234 101.39 55.8022 95.2348C55.9969 94.9391 56.1916 94.6434 56.3923 94.3388C59.6025 89.5454 63.1918 84.9602 67.163 80.7453C67.6978 80.1719 68.2159 79.5897 68.7332 79.0013C69.9683 77.6173 71.2874 76.322 72.6181 75.0265C72.8545 74.7941 73.091 74.5617 73.3346 74.3223C85.2451 62.69 100.532 53.9936 116.316 48.504C116.795 48.3358 117.273 48.1641 117.749 47.9901C123.29 45.975 129.041 44.7019 134.85 43.6847C135.3 43.6044 135.3 43.6044 135.76 43.5225C153.696 40.3671 172.974 41.3261 190.476 46.2622Z" fill="black"/>
<path d="M156.917 81.381C157.238 81.381 157.558 81.3809 157.889 81.3809C162.995 81.3887 167.89 81.6604 172.91 82.6339C173.136 82.6737 173.362 82.7135 173.594 82.7545C187.365 85.1907 200.628 92.1647 210.97 101.249C211.124 101.384 211.278 101.518 211.436 101.656C214.32 104.204 217.154 107.475 217.499 111.421C217.512 115.47 216.643 118.181 213.861 121.207C210.83 124.04 206.927 124.62 202.931 124.535C201.388 124.461 200.252 124.148 198.966 123.301C198.758 123.175 198.55 123.049 198.336 122.92C196.924 122.012 195.633 120.974 194.341 119.913C183.435 110.968 170.96 105.668 156.588 105.742C156.371 105.743 156.154 105.743 155.931 105.744C142.332 105.806 129.484 110.99 119.626 120.151C119.47 120.294 119.314 120.437 119.153 120.585C116.534 123.003 114.315 125.533 112.306 128.456C112.184 128.631 112.062 128.806 111.936 128.986C108.844 133.447 106.286 138.469 104.694 143.635C104.605 143.915 104.605 143.915 104.514 144.201C99.756 159.384 101.454 175.89 108.913 189.938C110.904 193.602 113.332 196.773 116.143 199.873C116.794 200.598 117.261 201.132 117.576 202.058C117.77 202.058 117.963 202.058 118.162 202.058C118.162 202.247 118.162 202.436 118.162 202.631C118.321 202.694 118.48 202.756 118.643 202.82C119.564 203.333 120.249 204.04 120.998 204.761C123.004 206.633 125.215 208.061 127.576 209.467C128.015 209.73 128.447 210.003 128.878 210.279C138.257 216.179 152.064 219.429 163.066 217.246C163.301 217.194 163.536 217.143 163.778 217.09C164.632 216.905 165.491 216.803 166.359 216.7C169.998 216.201 173.361 215.282 176.716 213.8C177.076 213.651 177.437 213.502 177.799 213.354C183.699 210.922 188.872 207.845 193.79 203.824C197.995 200.502 201.398 198.965 206.871 199.195C209.909 199.512 212.734 200.992 214.776 203.204C217.052 206.249 217.821 209.175 217.411 212.941C216.062 218.252 211.249 222.411 206.871 225.542C206.693 225.67 206.516 225.798 206.332 225.929C203.482 227.966 200.578 229.862 197.502 231.557C197.3 231.669 197.097 231.782 196.888 231.898C188.703 236.416 179.416 239.49 170.122 240.896C169.388 241.009 168.657 241.137 167.926 241.265C151.727 243.901 134.105 240.721 119.647 233.297C118.998 232.967 118.344 232.647 117.688 232.328C114.616 230.815 111.81 229.096 109.05 227.087C108.548 226.722 108.042 226.364 107.533 226.008C105.635 224.657 103.908 223.188 102.205 221.615C101.482 220.934 101.482 220.934 100.596 220.387C100.596 220.198 100.596 220.009 100.596 219.815C100.436 219.754 100.276 219.693 100.112 219.631C99.1759 219.101 98.5138 218.372 97.7961 217.595C97.6428 217.431 97.4894 217.266 97.3314 217.097C95.8229 215.458 94.4277 213.741 93.0636 211.987C92.7118 211.536 92.3545 211.09 91.9968 210.643C90.3923 208.614 89.0341 206.496 87.7227 204.281C87.453 203.83 87.1735 203.385 86.8927 202.941C85.2343 200.291 83.9876 197.462 82.7368 194.612C82.6495 194.414 82.5621 194.217 82.4722 194.013C81.2486 191.218 80.3135 188.382 79.5163 185.448C79.4548 185.223 79.3933 184.998 79.3299 184.766C77.4008 177.591 76.5259 170.389 76.5337 162.984C76.5337 162.73 76.5337 162.475 76.5337 162.213C76.5374 158.472 76.6601 154.793 77.1742 151.081C77.2243 150.678 77.2739 150.274 77.3228 149.871C79.1657 135.363 85.2759 121.44 94.7403 110.127C94.8679 109.973 94.9954 109.82 95.1269 109.661C98.4948 105.621 102.24 101.871 106.451 98.6718C106.784 98.4038 107.117 98.1349 107.448 97.8652C110.105 95.7177 112.875 93.835 115.82 92.0848C116.009 91.9723 116.197 91.8598 116.392 91.7439C128.686 84.5099 142.684 81.3573 156.917 81.381Z" fill="black"/>
<path d="M194.032 149.895C194.33 149.894 194.628 149.894 194.936 149.893C195.935 149.89 196.934 149.89 197.933 149.889C198.65 149.888 199.366 149.887 200.083 149.885C202.03 149.881 203.976 149.879 205.923 149.878C207.139 149.877 208.355 149.876 209.572 149.875C212.942 149.871 216.313 149.868 219.683 149.867C219.899 149.867 220.114 149.867 220.336 149.867C220.552 149.867 220.768 149.867 220.991 149.867C221.429 149.867 221.866 149.867 222.304 149.867C222.521 149.867 222.738 149.867 222.962 149.866C226.48 149.865 229.997 149.86 233.514 149.854C237.129 149.847 240.744 149.843 244.358 149.843C246.387 149.843 248.415 149.841 250.443 149.836C252.351 149.831 254.259 149.831 256.167 149.833C256.866 149.833 257.566 149.832 258.265 149.829C259.222 149.826 260.178 149.827 261.135 149.83C261.41 149.828 261.685 149.826 261.968 149.823C265.626 149.85 268.727 151.152 271.372 153.623C274.009 156.364 274.984 159.107 274.895 162.867C274.575 166.331 273.2 169.549 270.457 171.808C267.344 174.066 264.103 174.654 260.289 174.642C259.843 174.644 259.843 174.644 259.389 174.646C258.403 174.649 257.416 174.649 256.429 174.648C255.718 174.65 255.008 174.652 254.297 174.654C252.572 174.659 250.847 174.66 249.122 174.661C247.719 174.661 246.316 174.662 244.913 174.664C240.929 174.669 236.944 174.672 232.96 174.671C232.746 174.671 232.531 174.671 232.31 174.671C231.988 174.671 231.988 174.671 231.66 174.671C228.181 174.671 224.702 174.676 221.222 174.684C217.644 174.693 214.065 174.697 210.486 174.696C208.479 174.696 206.473 174.697 204.466 174.704C202.579 174.709 200.692 174.709 198.805 174.705C198.114 174.704 197.422 174.706 196.731 174.709C195.785 174.714 194.839 174.711 193.893 174.707C193.621 174.71 193.35 174.712 193.071 174.716C189.984 174.684 187.541 173.628 185.206 171.701C184.964 171.527 184.723 171.353 184.474 171.174C182.104 169.171 181.001 165.962 180.723 162.991C180.593 159.355 181.809 156.014 184.338 153.307C187.277 150.6 190.1 149.892 194.032 149.895Z" fill="black"/>
<path d="M227.096 239.206L220.115 239.354V239.801H212.677L215.865 237.572L217.231 236.532L217.99 235.938L220.115 234.155L220.57 233.71L227.096 227.174V239.206ZM101.269 220.786L100.51 220.341L99.6003 219.301H101.269V220.786ZM117.662 201.623L118.118 202.069L118.877 202.96L119.332 203.406L116.752 203.258V200.584L117.662 201.623ZM229.374 97.3418L228.614 96.7471L228.463 96.5986L227.096 95.2617H229.677L229.374 97.3418Z" fill="black"/>
</g>
<defs>
<filter id="filter0_d_2338_967" x="4.86374e-05" y="-0.000195503" width="318.6" height="318.6" filterUnits="userSpaceOnUse" color-interpolation-filters="sRGB">
<feFlood flood-opacity="0" result="BackgroundImageFix"/>
<feColorMatrix in="SourceAlpha" type="matrix" values="0 0 0 0 0 0 0 0 0 0 0 0 0 0 0 0 0 0 127 0" result="hardAlpha"/>
<feOffset dx="4" dy="-2"/>
<feGaussianBlur stdDeviation="4.9"/>
<feComposite in2="hardAlpha" operator="out"/>
<feColorMatrix type="matrix" values="0 0 0 0 0 0 0 0 0 0 0 0 0 0 0 0 0 0 0.25 0"/>
<feBlend mode="normal" in2="BackgroundImageFix" result="effect1_dropShadow_2338_967"/>
<feBlend mode="normal" in="SourceGraphic" in2="effect1_dropShadow_2338_967" result="shape"/>
</filter>
</defs>
</svg>
